<svg xmlns="http://www.w3.org/2000/svg" xmlns:xlink="http://www.w3.org/1999/xlink" width="1080" zoomAndPan="magnify" viewBox="0 0 810 809.999993" height="1080" preserveAspectRatio="xMidYMid meet" version="1.0"><path fill="#1c191c" d="M 543.886719 537.867188 C 555.015625 563.609375 551.976562 590.441406 552.148438 616.945312 C 552.316406 643.371094 552.3125 669.800781 552.128906 696.230469 C 551.980469 715.882812 536.15625 728.984375 517.910156 724.980469 C 505.1875 722.1875 496.246094 711.109375 496.214844 697.425781 C 496.136719 660.078125 496 622.726562 496.382812 585.382812 C 496.574219 566.773438 491.09375 550.621094 478.519531 536.945312 C 470.421875 528.136719 467.476562 518.09375 471.8125 506.785156 C 476.015625 495.8125 484.597656 490.722656 496.144531 488.578125 C 517.316406 484.640625 538.808594 481.246094 559.230469 474.695312 C 606.398438 459.566406 634.019531 425.878906 644.101562 377.863281 C 650.28125 348.425781 653.15625 318.695312 645.605469 288.957031 C 640.742188 269.785156 631.65625 252.679688 618.152344 238.253906 C 608.277344 227.703125 605.914062 216.527344 610.800781 202.839844 C 618.085938 182.453125 618.832031 161.511719 613.46875 139.132812 C 606.117188 141.636719 598.824219 143.222656 592.378906 146.488281 C 576.066406 154.753906 559.753906 163.152344 544.1875 172.707031 C 533.75 179.117188 523.792969 181.03125 511.929688 177.960938 C 454.78125 163.175781 397.589844 163.199219 340.359375 178.035156 C 328.761719 181.042969 318.75 179.5625 308.75 172.789062 C 289.199219 159.546875 268.632812 148.09375 245.800781 141.3125 C 243.761719 140.707031 241.660156 140.308594 239.097656 139.695312 C 234.851562 155.320312 234.511719 170.628906 237.398438 185.980469 C 238.683594 192.804688 240.742188 199.515625 242.847656 206.148438 C 246.238281 216.835938 244.816406 226.632812 237.207031 234.851562 C 212.296875 261.765625 201.234375 293.53125 202.6875 330.003906 C 203.6875 355.230469 206.75 380.035156 216.15625 403.679688 C 231.398438 442 260.453125 465.246094 298.90625 476.941406 C 316.96875 482.433594 335.761719 485.761719 354.417969 488.957031 C 373.359375 492.203125 384.5625 503.84375 382.058594 521 C 381.261719 526.480469 378.425781 532.417969 374.75 536.582031 C 361.464844 551.640625 355.796875 568.777344 356.101562 588.789062 C 356.648438 624.820312 356.371094 660.863281 356.234375 696.902344 C 356.167969 713.441406 344.324219 725.640625 328.691406 725.847656 C 312.957031 726.058594 300.800781 713.570312 300.640625 696.738281 C 300.488281 681.046875 300.609375 665.355469 300.609375 650.488281 C 286.324219 650.488281 272.613281 651.226562 259.007812 650.34375 C 226.554688 648.230469 199.53125 634.078125 177.492188 610.582031 C 167.503906 599.933594 158.542969 588.3125 149.226562 577.039062 C 141.53125 567.726562 133.539062 559.472656 121.371094 555.265625 C 107.882812 550.597656 101.710938 534.5625 106.363281 521.015625 C 111.140625 507.105469 125.582031 499.449219 139.90625 503.125 C 158.40625 507.875 172.84375 518.851562 185.0625 532.964844 C 193.921875 543.195312 202.421875 553.75 210.785156 564.386719 C 234.203125 594.171875 264.761719 600.363281 299.808594 591.976562 C 300.464844 582.65625 300.550781 573.472656 301.902344 564.480469 C 303.222656 555.699219 305.832031 547.109375 307.921875 538.226562 C 297.949219 535.183594 287.472656 532.367188 277.257812 528.8125 C 202.539062 502.804688 161.96875 448.921875 150.421875 371.945312 C 145.871094 341.609375 144.320312 311.132812 151.328125 280.800781 C 156.90625 256.65625 166.882812 234.550781 181.621094 214.660156 C 184.160156 211.234375 185.0625 208.203125 184.09375 203.929688 C 176.222656 169.285156 179.078125 135.4375 192.304688 102.476562 C 197.792969 88.792969 206.871094 83.292969 221.496094 82.609375 C 256.023438 80.996094 286.167969 94.25 314.542969 111.253906 C 328.136719 119.40625 340.15625 120.878906 355.328125 117.863281 C 407.136719 107.574219 459.085938 109.070312 510.695312 120.179688 C 516.648438 121.460938 521.226562 120.875 526.492188 117.648438 C 552.089844 101.972656 578.753906 88.457031 608.792969 83.695312 C 617.960938 82.242188 627.570312 82.242188 636.84375 83.078125 C 647.90625 84.082031 655.546875 90.78125 659.761719 101.171875 C 673.367188 134.714844 676.433594 169.117188 668.644531 204.535156 C 668.046875 207.273438 668.722656 211.160156 670.347656 213.386719 C 697.660156 250.816406 708.300781 292.808594 705.503906 338.671875 C 703.648438 369.128906 698.953125 398.976562 687.023438 427.285156 C 664.453125 480.832031 623.53125 513.566406 569.070312 530.765625 C 561.007812 533.308594 552.792969 535.367188 543.886719 537.867188 Z M 543.886719 537.867188 " fill-opacity="1" fill-rule="nonzero"/></svg>