<svg xmlns="http://www.w3.org/2000/svg" xmlns:xlink="http://www.w3.org/1999/xlink" width="1080" zoomAndPan="magnify" viewBox="0 0 810 809.999993" height="1080" preserveAspectRatio="xMidYMid meet" version="1.0"><defs><clipPath id="e106de5e95"><path d="M 81 81 L 729 81 L 729 729 L 81 729 Z M 81 81 " clip-rule="nonzero"/></clipPath></defs><g clip-path="url(#e106de5e95)"><path fill="#1c191c" d="M 270.730469 83.226562 C 236.269531 84.847656 212.738281 90.371094 192.164062 98.429688 C 170.859375 106.730469 152.820312 117.839844 134.871094 135.878906 C 116.894531 153.917969 105.84375 171.988281 97.636719 193.324219 C 89.667969 213.957031 84.265625 237.492188 82.738281 271.980469 C 81.214844 306.503906 80.878906 317.523438 81.03125 405.488281 C 81.183594 493.425781 81.578125 504.472656 83.226562 539.027344 C 84.875 573.484375 90.371094 596.988281 98.429688 617.589844 C 106.730469 638.898438 117.839844 656.90625 135.878906 674.882812 C 153.917969 692.859375 171.988281 703.878906 193.324219 712.121094 C 213.925781 720.085938 237.492188 725.519531 271.949219 727.015625 C 306.503906 728.542969 317.523438 728.878906 405.457031 728.695312 C 493.425781 728.542969 504.445312 728.144531 538.996094 726.496094 C 573.457031 724.847656 596.957031 719.324219 617.5625 711.296875 C 638.867188 702.964844 656.90625 691.882812 674.851562 673.84375 C 692.800781 655.804688 703.847656 637.738281 712.089844 616.402344 C 720.058594 595.796875 725.488281 572.234375 726.984375 537.804688 C 728.480469 503.253906 728.847656 492.203125 728.695312 404.265625 C 728.542969 316.332031 728.113281 305.3125 726.496094 270.761719 C 724.847656 236.269531 719.355469 212.765625 711.296875 192.164062 C 702.964844 170.859375 691.882812 152.851562 673.84375 134.871094 C 655.804688 116.925781 637.738281 105.84375 616.402344 97.636719 C 595.796875 89.667969 572.234375 84.234375 537.773438 82.738281 C 503.222656 81.214844 492.171875 80.878906 404.238281 81.03125 C 316.300781 81.183594 305.28125 81.578125 270.730469 83.226562 M 274.515625 668.6875 C 242.953125 667.3125 225.800781 662.0625 214.355469 657.667969 C 199.214844 651.808594 188.441406 644.789062 177.054688 633.523438 C 165.699219 622.199219 158.679688 611.425781 152.757812 596.347656 C 148.332031 584.933594 142.992188 567.808594 141.496094 536.21875 C 139.878906 502.09375 139.511719 491.835938 139.359375 405.367188 C 139.207031 318.925781 139.511719 308.667969 141.007812 274.515625 C 142.351562 242.953125 147.632812 225.800781 152.027344 214.386719 C 157.886719 199.246094 164.875 188.472656 176.171875 177.085938 C 187.496094 165.730469 198.269531 158.710938 213.378906 152.789062 C 224.792969 148.332031 241.917969 143.023438 273.476562 141.527344 C 307.632812 139.910156 317.855469 139.574219 404.328125 139.390625 C 490.800781 139.207031 501.054688 139.511719 535.210938 141.039062 C 566.769531 142.410156 583.925781 147.632812 595.339844 152.058594 C 610.480469 157.917969 621.285156 164.875 632.640625 176.199219 C 643.992188 187.523438 651.042969 198.269531 656.9375 213.40625 C 661.390625 224.792969 666.703125 241.945312 668.199219 273.476562 C 669.816406 307.632812 670.183594 317.886719 670.335938 404.328125 C 670.488281 490.800781 670.183594 501.054688 668.6875 535.179688 C 667.3125 566.742188 662.0625 583.925781 657.667969 595.339844 C 651.808594 610.449219 644.816406 621.253906 633.492188 632.609375 C 622.171875 643.933594 611.425781 650.984375 596.285156 656.90625 C 584.902344 661.363281 567.746094 666.671875 536.21875 668.167969 C 502.0625 669.785156 491.835938 670.152344 405.335938 670.304688 C 318.894531 670.457031 308.640625 670.152344 274.484375 668.65625 M 538.539062 231.753906 C 538.566406 253.210938 556.027344 270.578125 577.453125 270.515625 C 598.910156 270.484375 616.277344 253.058594 616.25 231.601562 C 616.21875 210.140625 598.757812 192.773438 577.300781 192.804688 C 555.84375 192.835938 538.476562 210.292969 538.507812 231.722656 M 238.558594 405.183594 C 238.742188 497.027344 313.339844 571.320312 405.152344 571.136719 C 496.996094 570.953125 571.320312 496.386719 571.136719 404.542969 C 570.953125 312.730469 496.355469 238.40625 404.511719 238.558594 C 312.699219 238.742188 238.375 313.339844 238.558594 405.183594 M 296.886719 405.0625 C 296.796875 345.449219 345.023438 297.011719 404.632812 296.917969 C 464.246094 296.796875 512.683594 345.023438 512.808594 404.664062 C 512.929688 464.273438 464.671875 512.714844 405.0625 512.808594 C 345.449219 512.929688 297.011719 464.671875 296.917969 405.0625 " fill-opacity="1" fill-rule="nonzero"/></g></svg>