<svg xmlns="http://www.w3.org/2000/svg" xmlns:xlink="http://www.w3.org/1999/xlink" width="1080" zoomAndPan="magnify" viewBox="0 0 810 809.999993" height="1080" preserveAspectRatio="xMidYMid meet" version="1.0"><defs><clipPath id="f7db9f4efc"><path d="M 25.042969 81 L 668 81 L 668 724 L 25.042969 724 Z M 25.042969 81 " clip-rule="nonzero"/></clipPath><clipPath id="ad0c15353d"><path d="M 697 640 L 784.792969 640 L 784.792969 729 L 697 729 Z M 697 640 " clip-rule="nonzero"/></clipPath></defs><path fill="#1c191c" d="M 747.414062 687.5 C 753.984375 687.5625 759.375 682.292969 759.433594 675.722656 C 759.433594 675.449219 759.433594 675.179688 759.433594 674.90625 C 759.433594 665.972656 754.046875 661.707031 742.996094 661.707031 L 725.164062 661.707031 L 725.164062 708.421875 L 731.882812 708.421875 L 731.882812 688.046875 L 740.117188 688.046875 L 740.300781 688.289062 L 753.105469 708.390625 L 760.28125 708.390625 L 746.507812 687.5625 L 747.414062 687.441406 Z M 739.664062 682.808594 L 731.882812 682.808594 L 731.882812 667.003906 L 741.753906 667.003906 C 746.839844 667.003906 752.652344 667.851562 752.652344 674.511719 C 752.652344 682.171875 746.777344 682.808594 739.632812 682.808594 " fill-opacity="1" fill-rule="nonzero"/><g clip-path="url(#f7db9f4efc)"><path fill="#1c191c" d="M 572.332031 628.949219 L 477.144531 628.949219 L 477.144531 479.902344 C 477.144531 444.359375 476.511719 398.613281 427.644531 398.613281 C 378.78125 398.613281 370.484375 437.335938 370.484375 477.328125 L 370.484375 628.949219 L 275.300781 628.949219 L 275.300781 322.4375 L 366.671875 322.4375 L 366.671875 364.339844 L 367.941406 364.339844 C 386.5625 332.492188 421.226562 313.445312 458.101562 314.839844 C 554.558594 314.839844 572.363281 378.296875 572.363281 460.828125 L 572.363281 628.976562 Z M 167.941406 280.539062 C 137.425781 280.539062 112.71875 255.832031 112.691406 225.316406 C 112.660156 194.796875 137.394531 170.09375 167.914062 170.0625 C 198.429688 170.0625 223.136719 194.765625 223.164062 225.285156 C 223.195312 255.800781 198.460938 280.507812 167.941406 280.539062 M 215.535156 628.949219 L 120.257812 628.949219 L 120.257812 322.4375 L 215.535156 322.4375 Z M 619.773438 81.6875 L 72.453125 81.6875 C 46.570312 81.414062 25.34375 102.125 25.042969 128.011719 L 25.042969 677.628906 C 25.34375 703.515625 46.570312 724.253906 72.453125 723.980469 L 619.804688 723.980469 C 645.75 724.316406 667.035156 703.578125 667.398438 677.628906 L 667.398438 127.949219 C 667.003906 102.035156 645.71875 81.324219 619.773438 81.65625 " fill-opacity="1" fill-rule="nonzero"/></g><g clip-path="url(#ad0c15353d)"><path fill="#1c191c" d="M 740.480469 640.90625 C 716.292969 641.148438 696.886719 660.949219 697.097656 685.140625 C 697.339844 709.328125 717.140625 728.734375 741.328125 728.523438 C 765.519531 728.28125 784.925781 708.480469 784.714844 684.292969 C 784.472656 660.433594 765.1875 641.148438 741.328125 640.90625 L 740.480469 640.90625 M 740.480469 723.496094 C 719.257812 723.859375 701.789062 706.9375 701.425781 685.746094 C 701.0625 664.550781 717.988281 647.050781 739.179688 646.6875 C 760.402344 646.324219 777.871094 663.25 778.234375 684.441406 L 778.234375 685.078125 C 778.691406 705.816406 762.21875 723.011719 741.480469 723.46875 L 740.480469 723.46875 " fill-opacity="1" fill-rule="nonzero"/></g></svg>
