<svg xmlns="http://www.w3.org/2000/svg" xmlns:xlink="http://www.w3.org/1999/xlink" width="1080" zoomAndPan="magnify" viewBox="0 0 810 809.999993" height="1080" preserveAspectRatio="xMidYMid meet" version="1.0"><defs><clipPath id="3361ea3824"><path d="M 121.058594 81 L 688.808594 81 L 688.808594 729 L 121.058594 729 Z M 121.058594 81 " clip-rule="nonzero"/></clipPath></defs><g clip-path="url(#3361ea3824)"><path fill="#1c191c" d="M 410.226562 728.679688 L 409.835938 728.679688 C 313.261719 728.03125 239.015625 696.1875 189.109375 634.046875 C 144.773438 578.703125 121.859375 501.742188 121.082031 405.292969 L 121.082031 404.839844 C 121.859375 308.332031 144.773438 231.433594 189.175781 176.089844 C 239.015625 113.886719 313.324219 82.039062 409.835938 81.390625 L 410.226562 81.390625 C 484.273438 81.910156 546.21875 100.941406 594.3125 137.964844 C 639.558594 172.789062 671.40625 222.371094 688.945312 285.417969 L 633.925781 300.757812 C 604.152344 193.957031 528.808594 139.390625 409.964844 138.546875 C 331.515625 139.128906 272.160156 163.792969 233.578125 211.820312 C 197.527344 256.808594 178.882812 321.792969 178.171875 405.035156 C 178.882812 488.277344 197.527344 553.265625 233.644531 598.25 C 272.222656 646.34375 331.578125 671.007812 410.03125 671.523438 C 480.777344 671.007812 527.578125 654.5 566.480469 616.375 C 610.882812 572.878906 610.105469 519.476562 595.867188 486.980469 C 587.515625 467.824219 572.304688 451.898438 551.785156 439.796875 C 546.609375 476.238281 535.023438 505.753906 517.15625 528.019531 C 493.273438 557.730469 459.417969 573.976562 416.566406 576.308594 C 384.140625 578.054688 352.875 570.417969 328.667969 554.6875 C 299.992188 536.113281 283.226562 507.761719 281.414062 474.75 C 279.667969 442.644531 292.417969 413.125 317.273438 391.636719 C 341.03125 371.117188 374.429688 359.078125 413.914062 356.8125 C 442.976562 355.195312 470.226562 356.488281 495.34375 360.632812 C 491.976562 340.628906 485.246094 324.707031 475.148438 313.25 C 461.296875 297.457031 439.871094 289.429688 411.519531 289.234375 L 410.742188 289.234375 C 387.957031 289.234375 357.019531 295.515625 337.339844 324.835938 L 289.957031 293.054688 C 316.367188 253.828125 359.21875 232.210938 410.742188 232.210938 L 411.90625 232.210938 C 498.0625 232.726562 549.390625 285.480469 554.503906 377.527344 C 557.417969 378.753906 560.332031 380.050781 563.179688 381.34375 C 603.375 400.246094 632.761719 428.855469 648.234375 464.132812 C 669.722656 513.261719 671.730469 593.332031 606.484375 657.21875 C 556.578125 706.023438 496.054688 728.097656 410.226562 728.679688 Z M 437.085938 413.386719 C 430.550781 413.386719 423.949219 413.578125 417.152344 413.96875 C 367.632812 416.75 336.757812 439.472656 338.503906 471.769531 C 340.316406 505.625 377.667969 521.351562 413.589844 519.410156 C 446.601562 517.664062 489.582031 504.78125 496.832031 419.339844 C 478.578125 415.390625 458.578125 413.386719 437.085938 413.386719 Z M 437.085938 413.386719 " fill-opacity="1" fill-rule="nonzero"/></g></svg>